<svg width="167" height="157" viewBox="0 0 167 157" fill="none" xmlns="http://www.w3.org/2000/svg">
<rect x="7.24924" width="4.81222" height="4.81222" rx="2.27921" fill="#FB5850" fill-opacity="0.27"/>
<rect x="26.4977" width="4.81222" height="4.81222" rx="2.27921" fill="#FB5850" fill-opacity="0.27"/>
<rect x="45.747" width="4.81222" height="4.81222" rx="2.27921" fill="#FB5850" fill-opacity="0.27"/>
<rect x="64.9951" width="4.81222" height="4.81222" rx="2.27921" fill="#FB5850" fill-opacity="0.27"/>
<rect x="84.2444" width="4.81222" height="4.81222" rx="2.27921" fill="#FB5850" fill-opacity="0.27"/>
<rect x="103.494" width="4.81222" height="4.81222" rx="2.27921" fill="#FB5850" fill-opacity="0.27"/>
<rect x="122.742" width="4.81222" height="4.81222" rx="2.27921" fill="#FB5850" fill-opacity="0.27"/>
<rect x="141.991" width="4.81222" height="4.81222" rx="2.27921" fill="#FB5850" fill-opacity="0.27"/>
<rect x="161.24" width="4.81222" height="4.81222" rx="2.27921" fill="#FB5850" fill-opacity="0.27"/>
<rect x="7.24924" y="19.2488" width="4.81222" height="4.81222" rx="2.27921" fill="#FB5850" fill-opacity="0.27"/>
<rect x="26.4977" y="19.2488" width="4.81222" height="4.81222" rx="2.27921" fill="#FB5850" fill-opacity="0.27"/>
<rect x="45.747" y="19.2488" width="4.81222" height="4.81222" rx="2.27921" fill="#FB5850" fill-opacity="0.27"/>
<rect x="64.9951" y="19.2488" width="4.81222" height="4.81222" rx="2.27921" fill="#FB5850" fill-opacity="0.27"/>
<rect x="84.2444" y="19.2488" width="4.81222" height="4.81222" rx="2.27921" fill="#FB5850" fill-opacity="0.27"/>
<rect x="103.494" y="19.2488" width="4.81222" height="4.81222" rx="2.27921" fill="#FB5850" fill-opacity="0.27"/>
<rect x="122.742" y="19.2488" width="4.81222" height="4.81222" rx="2.27921" fill="#FB5850" fill-opacity="0.27"/>
<rect x="141.991" y="19.2488" width="4.81222" height="4.81222" rx="2.27921" fill="#FB5850" fill-opacity="0.27"/>
<rect x="161.24" y="19.2488" width="4.81222" height="4.81222" rx="2.27921" fill="#FB5850" fill-opacity="0.27"/>
<rect x="7.24924" y="38.4978" width="4.81222" height="4.81222" rx="2.27921" fill="#FB5850" fill-opacity="0.27"/>
<rect x="26.4977" y="38.4978" width="4.81222" height="4.81222" rx="2.27921" fill="#FB5850" fill-opacity="0.27"/>
<rect x="45.747" y="38.4978" width="4.81222" height="4.81222" rx="2.27921" fill="#FB5850" fill-opacity="0.27"/>
<rect x="64.9951" y="38.4978" width="4.81222" height="4.81222" rx="2.27921" fill="#FB5850" fill-opacity="0.27"/>
<rect x="84.2444" y="38.4978" width="4.81222" height="4.81222" rx="2.27921" fill="#FB5850" fill-opacity="0.27"/>
<rect x="103.494" y="38.4978" width="4.81222" height="4.81222" rx="2.27921" fill="#FB5850" fill-opacity="0.27"/>
<rect x="122.742" y="38.4978" width="4.81222" height="4.81222" rx="2.27921" fill="#FB5850" fill-opacity="0.27"/>
<rect x="141.991" y="38.4978" width="4.81222" height="4.81222" rx="2.27921" fill="#FB5850" fill-opacity="0.27"/>
<rect x="161.24" y="38.4978" width="4.81222" height="4.81222" rx="2.27921" fill="#FB5850" fill-opacity="0.27"/>
<rect x="7.24924" y="57.7466" width="4.81222" height="4.81222" rx="2.27921" fill="#FB5850" fill-opacity="0.27"/>
<rect x="26.4977" y="57.7466" width="4.81222" height="4.81222" rx="2.27921" fill="#FB5850" fill-opacity="0.27"/>
<rect x="45.747" y="57.7466" width="4.81222" height="4.81222" rx="2.27921" fill="#FB5850" fill-opacity="0.27"/>
<rect x="64.9951" y="57.7466" width="4.81222" height="4.81222" rx="2.27921" fill="#FB5850" fill-opacity="0.27"/>
<rect x="84.2444" y="57.7466" width="4.81222" height="4.81222" rx="2.27921" fill="#FB5850" fill-opacity="0.27"/>
<rect x="103.494" y="57.7466" width="4.81222" height="4.81222" rx="2.27921" fill="#FB5850" fill-opacity="0.27"/>
<rect x="122.742" y="57.7466" width="4.81222" height="4.81222" rx="2.27921" fill="#FB5850" fill-opacity="0.27"/>
<rect x="141.991" y="57.7466" width="4.81222" height="4.81222" rx="2.27921" fill="#FB5850" fill-opacity="0.27"/>
<rect x="161.24" y="57.7466" width="4.81222" height="4.81222" rx="2.27921" fill="#FB5850" fill-opacity="0.27"/>
<rect x="7.24924" y="76.9954" width="4.81222" height="4.81222" rx="2.27921" fill="#FB5850" fill-opacity="0.27"/>
<rect x="26.4977" y="76.9954" width="4.81222" height="4.81222" rx="2.27921" fill="#FB5850" fill-opacity="0.27"/>
<rect x="45.747" y="76.9954" width="4.81222" height="4.81222" rx="2.27921" fill="#FB5850" fill-opacity="0.27"/>
<rect x="64.9951" y="76.9954" width="4.81222" height="4.81222" rx="2.27921" fill="#FB5850"/>
<rect x="84.2444" y="76.9954" width="4.81222" height="4.81222" rx="2.27921" fill="#FB5850"/>
<rect x="103.494" y="76.9954" width="4.81222" height="4.81222" rx="2.27921" fill="#FB5850"/>
<rect x="122.742" y="76.9954" width="4.81222" height="4.81222" rx="2.27921" fill="#FB5850"/>
<rect x="141.991" y="76.9954" width="4.81222" height="4.81222" rx="2.27921" fill="#FB5850"/>
<rect x="161.24" y="76.9954" width="4.81222" height="4.81222" rx="2.27921" fill="#FB5850"/>
<rect x="7.24924" y="96.2444" width="4.81222" height="4.81222" rx="2.27921" fill="#FB5850" fill-opacity="0.27"/>
<rect x="26.4977" y="96.2444" width="4.81222" height="4.81222" rx="2.27921" fill="#FB5850" fill-opacity="0.27"/>
<rect x="45.747" y="96.2444" width="4.81222" height="4.81222" rx="2.27921" fill="#FB5850" fill-opacity="0.27"/>
<rect x="64.9951" y="96.2444" width="4.81222" height="4.81222" rx="2.27921" fill="#FB5850"/>
<rect x="84.2444" y="96.2444" width="4.81222" height="4.81222" rx="2.27921" fill="#FB5850"/>
<rect x="103.494" y="96.2444" width="4.81222" height="4.81222" rx="2.27921" fill="#FB5850"/>
<rect x="122.742" y="96.2444" width="4.81222" height="4.81222" rx="2.27921" fill="#FB5850"/>
<rect x="141.991" y="96.2444" width="4.81222" height="4.81222" rx="2.27921" fill="#FB5850"/>
<rect x="161.24" y="96.2444" width="4.81222" height="4.81222" rx="2.27921" fill="#FB5850"/>
<rect x="7.24924" y="115.493" width="4.81222" height="4.81222" rx="2.27921" fill="#FB5850" fill-opacity="0.27"/>
<rect x="7.24924" y="134.058" width="4.81222" height="4.81222" rx="2.27921" fill="#FB5850" fill-opacity="0.27"/>
<rect x="7.24924" y="152.623" width="4.81222" height="4.81222" rx="2.27921" fill="#FB5850" fill-opacity="0.27"/>
<rect x="26.4977" y="115.493" width="4.81222" height="4.81222" rx="2.27921" fill="#FB5850" fill-opacity="0.27"/>
<rect x="26.4977" y="134.058" width="4.81222" height="4.81222" rx="2.27921" fill="#FB5850" fill-opacity="0.27"/>
<rect x="26.4977" y="152.623" width="4.81222" height="4.81222" rx="2.27921" fill="#FB5850" fill-opacity="0.27"/>
<rect x="45.747" y="115.493" width="4.81222" height="4.81222" rx="2.27921" fill="#FB5850" fill-opacity="0.27"/>
<rect x="45.747" y="134.058" width="4.81222" height="4.81222" rx="2.27921" fill="#FB5850" fill-opacity="0.27"/>
<rect x="45.747" y="152.623" width="4.81222" height="4.81222" rx="2.27921" fill="#FB5850" fill-opacity="0.27"/>
<rect x="64.9951" y="115.493" width="4.81222" height="4.81222" rx="2.27921" fill="#FB5850"/>
<rect x="64.9951" y="134.058" width="4.81222" height="4.81222" rx="2.27921" fill="#FB5850"/>
<rect x="64.9951" y="152.623" width="4.81222" height="4.81222" rx="2.27921" fill="#FB5850"/>
<rect x="84.2444" y="115.493" width="4.81222" height="4.81222" rx="2.27921" fill="#FB5850"/>
<rect x="84.2444" y="134.058" width="4.81222" height="4.81222" rx="2.27921" fill="#FB5850"/>
<rect x="84.2444" y="152.623" width="4.81222" height="4.81222" rx="2.27921" fill="#FB5850"/>
<rect x="103.494" y="115.493" width="4.81222" height="4.81222" rx="2.27921" fill="#FB5850"/>
<rect x="103.494" y="134.058" width="4.81222" height="4.81222" rx="2.27921" fill="#FB5850"/>
<rect x="103.494" y="152.623" width="4.81222" height="4.81222" rx="2.27921" fill="#FB5850"/>
<rect x="122.742" y="115.493" width="4.81222" height="4.81222" rx="2.27921" fill="#FB5850"/>
<rect x="122.742" y="134.058" width="4.81222" height="4.81222" rx="2.27921" fill="#FB5850"/>
<rect x="122.742" y="152.623" width="4.81222" height="4.81222" rx="2.27921" fill="#FB5850"/>
<rect x="141.991" y="115.493" width="4.81222" height="4.81222" rx="2.27921" fill="#FB5850"/>
<rect x="141.991" y="134.058" width="4.81222" height="4.81222" rx="2.27921" fill="#FB5850"/>
<rect x="141.991" y="152.623" width="4.81222" height="4.81222" rx="2.27921" fill="#FB5850"/>
<rect x="161.24" y="115.493" width="4.81222" height="4.81222" rx="2.27921" fill="#FB5850"/>
<rect x="161.24" y="134.058" width="4.81222" height="4.81222" rx="2.27921" fill="#FB5850"/>
<rect x="161.24" y="152.623" width="4.81222" height="4.81222" rx="2.27921" fill="#FB5850"/>
</svg>
