<svg width="180" height="90" viewBox="0 0 180 90" fill="none" xmlns="http://www.w3.org/2000/svg">
<g clip-path="url(#clip0_1108_21980)">
<path d="M61.0908 57.0024L50.8818 46.8284L49.1868 48.5244V52.2104H44.8418V32.8984H49.1868V42.3774L58.6778 32.8984L61.7508 35.9714L53.9438 43.7554L64.1648 53.9294L61.0908 57.0024Z" fill="#572148"/>
<path d="M77.9182 42.5534C77.9182 41.0934 77.3962 39.8454 76.3522 38.8094C75.3162 37.7654 74.0672 37.2434 72.6082 37.2434C71.1322 37.2434 69.8762 37.7624 68.8402 38.7984C67.8122 39.8264 67.2982 41.0794 67.2982 42.5554C67.2982 44.0394 67.8122 45.2944 68.8402 46.3234C69.8682 47.3514 71.1252 47.8664 72.6082 47.8664C74.0842 47.8664 75.3362 47.3524 76.3652 46.3234C77.4002 45.2844 77.9182 44.0284 77.9182 42.5534ZM82.2632 42.5534C82.2632 45.2304 81.3212 47.5114 79.4372 49.3954C77.5382 51.2714 75.2612 52.2104 72.6082 52.2104C69.9232 52.2104 67.6432 51.2714 65.7662 49.3954C63.8902 47.5194 62.9512 45.2384 62.9512 42.5534C62.9512 39.9004 63.8902 37.6234 65.7662 35.7244C67.6502 33.8404 69.9302 32.8984 72.6082 32.8984C75.2452 32.8984 77.5152 33.8484 79.4142 35.7484C81.3132 37.6464 82.2632 39.9144 82.2632 42.5534Z" fill="#572148"/>
<path d="M96.0178 52.2094L87.8098 40.8344V52.2094H83.4648V32.8984H87.8098L96.0178 44.2614V32.8984H100.375V52.2094H96.0178Z" fill="#572148"/>
<path d="M107.12 37.2434V40.3764H114.845V44.7214H107.12V52.2104H102.775V32.8984H117.259V37.2434H107.12Z" fill="#572148"/>
<path d="M131.272 52.2094V44.7204H123.066V52.2094H118.721V32.8984H123.066V40.3764H131.272V32.8984H135.629V52.2094H131.272Z" fill="#572148"/>
<path d="M154.328 43.7544C154.328 46.1094 153.508 48.1074 151.867 49.7484C150.226 51.3894 148.232 52.2094 145.885 52.2094C143.53 52.2094 141.532 51.3894 139.891 49.7484C138.25 48.1074 137.43 46.1094 137.43 43.7544V32.8984H141.775V43.7544C141.775 44.8924 142.175 45.8624 142.976 46.6634C143.777 47.4644 144.747 47.8644 145.885 47.8644C147.023 47.8644 147.99 47.4644 148.782 46.6634C149.583 45.8624 149.983 44.8924 149.983 43.7544V32.8984H154.328V43.7544Z" fill="#572148"/>
<path d="M168.671 46.2984C168.671 45.8664 168.514 45.4974 168.2 45.1914C167.894 44.8774 167.528 44.7204 167.105 44.7204H160.488V47.8644H167.105C167.537 47.8644 167.906 47.7114 168.212 47.4054C168.519 47.0984 168.671 46.7294 168.671 46.2984ZM168.188 38.8084C168.188 38.4004 168.039 38.0354 167.74 37.7134C167.45 37.3994 167.089 37.2424 166.656 37.2424H160.487V40.3754H166.621C167.053 40.3754 167.422 40.2224 167.728 39.9164C168.035 39.6104 168.188 39.2414 168.188 38.8084ZM173.052 46.8284C173.052 48.3434 172.436 49.6304 171.204 50.6904C170.026 51.7034 168.669 52.2094 167.129 52.2094H156.143V32.8984H166.622C168.137 32.8984 169.491 33.3924 170.685 34.3824C171.95 35.4184 172.581 36.6784 172.581 38.1624C172.581 39.8734 171.874 41.2394 170.461 42.2604C172.189 43.3034 173.052 44.8264 173.052 46.8284Z" fill="#572148"/>
<path d="M10.081 52.083C5.973 47.975 5.973 41.315 10.081 37.206L25.289 22L27.438 24.149C26.343 25.244 26.343 27.021 27.438 28.116C28.533 29.211 30.31 29.211 31.405 28.116L33.554 30.265L20.036 43.78L12.37 37.842L19.171 44.643L10.907 52.907L10.081 52.083Z" fill="#572148"/>
<path d="M19.173 61.1758L10.083 52.0858C5.97495 47.9778 5.97495 41.3178 10.083 37.2088L10.909 36.3828L27.452 52.9258C27.417 52.9418 27.384 52.9648 27.355 52.9938L26.947 53.4038C26.81 53.5408 26.81 53.7628 26.947 53.8988C27.084 54.0358 27.306 54.0358 27.442 53.8988L27.852 53.4888C27.881 53.4598 27.904 53.4278 27.92 53.3918L33.554 59.0258L31.405 61.1748C30.31 60.0798 28.533 60.0798 27.438 61.1748C26.343 62.2698 26.343 64.0468 27.438 65.1418L25.289 67.2898L19.669 61.6698L20.077 61.2618C20.214 61.1248 20.214 60.9028 20.077 60.7668C19.94 60.6298 19.718 60.6298 19.582 60.7668L19.173 61.1758ZM20.4 59.9478C20.263 60.0848 20.263 60.3068 20.4 60.4428C20.537 60.5798 20.759 60.5798 20.895 60.4428L21.713 59.6248C21.85 59.4878 21.85 59.2658 21.713 59.1298C21.576 58.9928 21.354 58.9928 21.218 59.1298L20.4 59.9478ZM22.036 58.3118C21.899 58.4488 21.899 58.6708 22.036 58.8068C22.173 58.9438 22.395 58.9438 22.531 58.8068L23.349 57.9888C23.486 57.8518 23.486 57.6298 23.349 57.4938C23.212 57.3568 22.99 57.3568 22.854 57.4938L22.036 58.3118ZM23.672 56.6758C23.535 56.8128 23.535 57.0348 23.672 57.1708C23.809 57.3078 24.031 57.3078 24.167 57.1708L24.985 56.3528C25.122 56.2158 25.122 55.9938 24.985 55.8578C24.848 55.7208 24.626 55.7208 24.49 55.8578L23.672 56.6758ZM25.309 55.0388C25.172 55.1758 25.172 55.3978 25.309 55.5338C25.446 55.6708 25.668 55.6708 25.804 55.5338L26.622 54.7158C26.759 54.5788 26.759 54.3568 26.622 54.2208C26.485 54.0838 26.263 54.0838 26.127 54.2208L25.309 55.0388Z" fill="#572148"/>
</g>
<defs>
<clipPath id="clip0_1108_21980">
<rect width="180" height="90" fill="white"/>
</clipPath>
</defs>
</svg>
